<svg width="74" height="50" viewBox="0 0 74 50" xmlns="http://www.w3.org/2000/svg">
<path fill-rule="evenodd" clip-rule="evenodd" d="M14.1669 19.129C14.188 19.0396 13.4785 27.1377 13.5 27C13.5136 26.9132 14.2581 18.6043 14.2721 18.5C14.6951 15.3498 15.3523 4.54896 18.9796 4.73816C32.9785 5.14896 47.4158 -8.62569 57.9146 22.0075C90.2878 36.3997 60.1654 47.9635 34.5371 46.9365C9.21209 45.928 -12.4104 28.586 14.1669 19.129Z" stroke="black" stroke-linejoin="round"/>
<path fill-rule="evenodd" clip-rule="evenodd" d="M13.7699 23.0249C29.8055 32.6574 56.4156 26.2139 57.5 21.5C60.5 26 57.3263 28.1483 57.3263 28.1483C47 36.5 16.803 34.9126 13.1198 28.764C12.6861 27.1244 13.5531 23.6392 13.7699 23.0249Z" fill="black"/>
</svg>
