<svg width="176" height="150" viewBox="0 0 176 150" xmlns="http://www.w3.org/2000/svg">
<path d="M125.488 21.9444C125.488 21.9444 136.284 28.561 139.183 36.11C139.183 36.11 149.517 50.85 148.818 59.5547C148.818 59.5547 159.616 76.9687 159.159 83.9367C159.159 83.9367 168.435 100.65 167.045 107.616C167.045 107.616 172.614 118.298 171.222 126.656L173.894 137.562L157.527 144.532L151.717 134.552C151.717 134.552 143.357 129.905 141.51 117.366C141.51 117.366 134.892 108.656 135.004 96.4734L130.767 85.4767C132.911 76.296 129.332 63.7217 129.332 63.7217C122.184 51.211 125.013 23.5357 125.179 21.9304L125.488 21.9444Z"/>
<path d="M50.247 21.9561C50.4437 23.7961 53.2004 51.2647 46.096 63.7217C46.096 63.7217 42.419 76.589 44.7297 85.7997C44.7297 85.7997 44.507 86.428 44.2004 87.485L44.186 87.5297L40.7477 96.4734C40.8577 108.656 34.2417 117.366 34.2417 117.366C32.39 129.905 24.0324 134.552 24.0324 134.552L18.222 144.532L1.85571 137.562L4.52738 126.656C3.13538 118.298 8.70638 107.616 8.70638 107.616C7.31671 100.65 16.591 83.9367 16.591 83.9367C16.134 76.9687 26.929 59.5547 26.929 59.5547C26.2327 50.8501 36.5687 36.1101 36.5687 36.1101C39.4214 28.6711 49.928 22.1531 50.247 21.9561Z"/>
<path d="M130.767 85.4767C130.752 85.589 130.724 85.6853 130.696 85.7997C130.696 85.7997 135.763 100.514 132.074 107.864C132.074 107.864 134.833 124.894 130.239 130.404L128.413 146.969C128.413 146.969 107.491 148.35 87.707 148.35C67.9353 148.35 47.015 146.969 47.015 146.969L45.1913 130.404C40.579 124.894 43.3493 107.864 43.3493 107.864C40.4266 102.042 42.9906 91.624 44.186 87.5297L44.2003 87.485C44.507 86.428 44.7296 85.7997 44.7296 85.7997C42.419 76.589 46.096 63.7217 46.096 63.7217C53.2003 51.2647 50.4436 23.796 50.247 21.956C50.2326 21.8857 50.2326 21.86 50.2326 21.86C53.451 19.1017 67.701 14.0437 67.701 14.0437C67.701 14.0437 70.919 3.93035 71.3806 2.55269C71.842 1.16969 87.707 1.74135 87.707 1.74135C87.707 1.74135 103.584 1.16969 104.048 2.55269C104.507 3.93035 107.725 14.0437 107.725 14.0437C107.725 14.0437 121.975 19.1017 125.191 21.86C125.191 21.86 125.191 21.8857 125.179 21.9304C125.013 23.5357 122.184 51.211 129.332 63.7217C129.332 63.7217 132.911 76.296 130.767 85.4767Z"/>
<path d="M87.7867 22.6334C87.7867 22.6334 88.8604 13.1251 89.7837 9.90472C90.7071 6.68672 101.282 3.46905 101.282 3.46905L87.7867 22.6334ZM87.7867 22.6334C87.7867 22.6334 86.5634 13.1251 85.6447 9.90472C84.721 6.68672 74.146 3.46905 74.146 3.46905L87.7867 22.6334ZM87.7867 22.6334C100.209 22.6334 107.261 14.0484 107.261 14.0484M87.7867 22.6334C75.372 22.6334 68.1674 13.1251 68.1674 13.1251M88.1077 22.6454L92.2847 25.4274V148.366M87.7144 1.74839C87.7144 1.74839 103.579 1.16972 104.043 2.54772C104.502 3.93039 107.723 14.0484 107.723 14.0484C107.723 14.0484 121.98 19.1061 125.198 21.8651C125.198 21.8651 121.978 50.8404 129.337 63.7171C129.337 63.7171 133.002 76.5937 130.701 85.7954C130.701 85.7954 135.761 100.514 132.079 107.869C132.079 107.869 134.842 124.889 130.246 130.404L128.418 146.963C128.418 146.963 107.491 148.345 87.7144 148.345C67.9354 148.345 47.0101 146.963 47.0101 146.963L45.1847 130.404C40.5837 124.889 43.3471 107.869 43.3471 107.869C39.6624 100.514 44.7251 85.7954 44.7251 85.7954C42.4257 76.5937 46.0914 63.7171 46.0914 63.7171C53.4487 50.8404 50.2327 21.8651 50.2327 21.8651C53.4487 19.1061 67.7054 14.0484 67.7054 14.0484C67.7054 14.0484 70.9257 3.93039 71.3877 2.54772C71.847 1.16972 87.7144 1.74839 87.7144 1.74839ZM129.796 130.861C129.796 130.861 111.398 132.703 87.9437 132.703C64.4877 132.703 45.6321 129.944 45.6321 129.944C78.5593 133.234 96.9888 133.631 129.796 130.861Z" stroke="#1A1919" stroke-linecap="round" stroke-linejoin="round"/>
<path d="M86.3644 27.865C86.3644 28.8257 87.1467 29.606 88.1077 29.606C89.0687 29.606 89.847 28.8257 89.847 27.865C89.847 26.9063 89.0687 26.128 88.1077 26.128C87.1467 26.128 86.3644 26.9063 86.3644 27.865Z" fill="black"/>
<path d="M86.3644 27.865C86.3644 28.8257 87.1467 29.606 88.1077 29.606C89.0687 29.606 89.847 28.8257 89.847 27.865C89.847 26.9063 89.0687 26.128 88.1077 26.128C87.1467 26.128 86.3644 26.9063 86.3644 27.865Z" stroke="#1A1919" stroke-linecap="round" stroke-linejoin="round"/>
<path d="M86.3644 50.503C86.3644 51.4687 87.1467 52.2467 88.1077 52.2467C89.0687 52.2467 89.847 51.4687 89.847 50.503C89.847 49.542 89.0687 48.764 88.1077 48.764C87.1467 48.764 86.3644 49.542 86.3644 50.503Z" fill="black"/>
<path d="M86.3644 50.503C86.3644 51.4687 87.1467 52.2467 88.1077 52.2467C89.0687 52.2467 89.847 51.4687 89.847 50.503C89.847 49.542 89.0687 48.764 88.1077 48.764C87.1467 48.764 86.3644 49.542 86.3644 50.503Z" stroke="#1A1919" stroke-linecap="round" stroke-linejoin="round"/>
<path d="M86.3644 73.139C86.3644 74.1044 87.1467 74.8827 88.1077 74.8827C89.0687 74.8827 89.847 74.1044 89.847 73.139C89.847 72.1804 89.0687 71.4 88.1077 71.4C87.1467 71.4 86.3644 72.1804 86.3644 73.139Z" fill="black"/>
<path d="M86.3644 73.139C86.3644 74.1044 87.1467 74.8827 88.1077 74.8827C89.0687 74.8827 89.847 74.1044 89.847 73.139C89.847 72.1804 89.0687 71.4 88.1077 71.4C87.1467 71.4 86.3644 72.1804 86.3644 73.139Z" stroke="#1A1919" stroke-linecap="round" stroke-linejoin="round"/>
<path d="M86.3644 95.782C86.3644 96.7407 87.1467 97.5187 88.1077 97.5187C89.0687 97.5187 89.847 96.7407 89.847 95.782C89.847 94.821 89.0687 94.0357 88.1077 94.0357C87.1467 94.0357 86.3644 94.821 86.3644 95.782Z" fill="black"/>
<path d="M86.3644 95.782C86.3644 96.7407 87.1467 97.5187 88.1077 97.5187C89.0687 97.5187 89.847 96.7407 89.847 95.782C89.847 94.821 89.0687 94.0357 88.1077 94.0357C87.1467 94.0357 86.3644 94.821 86.3644 95.782Z" stroke="#1A1919" stroke-linecap="round" stroke-linejoin="round"/>
<path d="M86.3644 118.416C86.3644 119.377 87.1467 120.157 88.1077 120.157C89.0687 120.157 89.847 119.377 89.847 118.416C89.847 117.455 89.0687 116.672 88.1077 116.672C87.1467 116.672 86.3644 117.455 86.3644 118.416Z" fill="black"/>
<path d="M170.411 126.422L151.956 134.084M5.33838 126.422L23.7954 134.084M86.3644 118.416C86.3644 119.377 87.1467 120.157 88.1077 120.157C89.0687 120.157 89.847 119.377 89.847 118.416C89.847 117.455 89.0687 116.672 88.1077 116.672C87.1467 116.672 86.3644 117.455 86.3644 118.416ZM125.488 21.9443C125.488 21.9443 136.284 28.561 139.185 36.11C139.185 36.11 149.517 50.85 148.818 59.5547C148.818 59.5547 159.618 76.9687 159.154 83.9367C159.154 83.9367 168.44 100.65 167.05 107.618C167.05 107.618 172.621 118.298 171.224 126.656L173.894 137.569L157.527 144.534L151.724 134.55C151.724 134.55 143.364 129.907 141.51 117.37C141.51 117.37 134.892 108.663 135.006 96.4733L130.71 85.3287C130.71 85.3287 133 77.5 129.5 64C121.5 50.5 125.488 21.9443 125.488 21.9443ZM50.2634 21.9443C50.2634 21.9443 39.4657 28.561 36.5664 36.11C36.5664 36.11 26.2327 50.85 26.929 59.5547C26.929 59.5547 16.134 76.9687 16.5977 83.9367C16.5977 83.9367 7.31205 100.65 8.70438 107.618C8.70438 107.618 3.12838 118.298 4.52071 126.656L1.85571 137.569L18.222 144.534L24.0297 134.55C24.0297 134.55 32.385 129.907 34.2417 117.37C34.2417 117.37 40.8577 108.663 40.7454 96.4733L45.0367 85.3287C45.0367 85.3287 42 81 46 64C53.5 52.5 50.2634 21.9443 50.2634 21.9443Z" stroke="#1A1919" stroke-linecap="round" stroke-linejoin="round"/>
<path d="M114.159 82.577H119.678V115.687H114.159V82.577Z"/>
<path d="M114.159 115.687H119.678V82.577H114.159V115.687Z" stroke="#1A1919" stroke-linecap="round" stroke-linejoin="round"/>
<path d="M57.2314 82.577H62.7511V115.687H57.2314V82.577Z"/>
<path d="M57.2314 82.577H62.7511V115.687H57.2314V82.577Z" stroke="#1A1919" stroke-linecap="round" stroke-linejoin="round"/>
</svg>
