<svg width="58" height="150" viewBox="0 0 58 150" xmlns="http://www.w3.org/2000/svg">
<g>
<path d="M28.7937 0.0949707L4.90439 0.262876V5.81536C4.90439 5.81536 1.5122 22.9992 0.758875 31.7074C-0.119362 41.8584 0.0189659 52.0876 0.33623 62.2722C0.737052 75.1391 2.85133 87.9141 3.27746 100.78C3.64119 111.761 2.63617 122.753 2.94745 133.736C3.08644 138.64 3.92592 148.425 3.92592 148.425C3.92592 148.425 10.0978 150.53 13.0681 149.728C16.2826 148.859 20.8959 143.527 20.8959 143.527V105.998C20.8959 105.998 23.2784 80.0535 25.1398 67.1658C26.0725 60.7085 28.3521 49.0432 28.8047 46.7393C29.2577 49.0445 31.5312 60.709 32.4639 67.1658C34.3254 80.0539 36.7078 105.998 36.7078 105.998V143.527C36.7078 143.527 41.3269 148.859 44.5414 149.728C47.5117 150.53 53.6776 148.425 53.6776 148.425C53.6776 148.425 54.5171 138.64 54.6561 133.736C54.9674 122.753 53.9681 111.763 54.3319 100.78C54.758 87.9134 56.8664 75.1376 57.2674 62.2722C57.5846 52.0882 57.723 41.8586 56.8447 31.7074C56.0913 22.9992 52.6992 5.81536 52.6992 5.81536V0.262876L28.8155 0.0949707L28.8039 2.90892L28.7923 0.0949707H28.7937Z" stroke="#1A1A1A" stroke-width="0.315386"/>
<path d="M52.9603 0.95105H4.58521V4.64523H52.9603V0.95105Z" fill="#502D16" stroke="#502D16" stroke-width="0.301866"/>
<path d="M18.1854 0.515686H17.1802V5.07881H18.1854V0.515686Z"/>
<path d="M40.2994 0.515686H39.4279V5.07881H40.2994V0.515686Z"/>
<path d="M7.09492 0.515686H6.08966V5.07881H7.09492V0.515686Z"/>
<path d="M51.4003 0.515686H50.5092V5.07881H51.4003V0.515686Z"/>
<path d="M30.5983 0.36377H26.9478V5.23204H30.5983V0.36377Z" fill="#666666" stroke="#C8B7B7" stroke-width="0.370043"/>
</g>
</svg>
