<svg width="190" height="150" viewBox="0 0 190 150" xmlns="http://www.w3.org/2000/svg">
<g>
<path d="M79.859 2.45898C66.4959 14.9568 71.3274 27.1463 68.2333 39.47H122.683C118.668 26.909 122.242 10.2377 109.806 2.23824C99.3373 0.17074 89.347 0.209813 79.859 2.45898Z"  stroke="black"/>
<path d="M16.3372 135.018L0.728394 127.838L7.38815 115.767C6.0008 113.131 7.79402 110.495 9.05309 107.859C20.7255 83.8288 34.3877 53.8587 43.6006 25.8937C44.8419 23.4601 46.4091 21.2709 49.8441 20.4826C60.5275 15.4413 65.0301 13.3855 75.7134 11.0816C78.8207 21.0918 94.2369 29.8931 100.512 42.9593L102.176 131.201L100.095 148.683L53.3046 144.104C55.4342 108.331 54.5534 89.6942 54.0779 61.7194C46.9144 83.5687 34.0398 107.354 25.2863 122.843C24.1132 123.575 24.6917 125.182 21.5401 124.924L21.0198 128.15L16.3372 135.018Z"  stroke="black"/>
<path d="M94.8622 33.819L79.247 26.027L61.7079 36.2691L71.9853 8.95356L78.5386 3.43048C76.8189 12.3426 79.8952 14.5403 81.8694 18.2811L94.8622 33.819Z"  stroke="black"/>
<path d="M18.6399 126.884C18.6399 127.778 17.9151 128.503 17.0211 128.503C16.1271 128.503 15.4023 127.778 15.4023 126.884C15.4023 125.99 16.1271 125.265 17.0211 125.265C17.9151 125.265 18.6399 125.99 18.6399 126.884Z" fill="black"/>
<path d="M173.098 135.607L188.707 128.427L182.047 116.356C183.435 113.72 181.642 111.084 180.383 108.447C168.71 84.4175 155.048 54.4473 145.835 26.4823C144.594 24.0487 143.027 21.8595 139.592 21.0712C128.908 16.0299 124.7 13.3855 114.017 11.0816C110.909 21.0918 95.1987 30.4817 88.9241 43.5479L87.2592 131.79L89.3403 149.272L136.131 144.693C134.001 108.92 134.882 90.2828 135.358 62.3081C142.521 84.1574 155.396 107.943 164.149 123.432C165.322 124.163 164.744 125.771 167.895 125.513L168.416 128.739L173.098 135.607Z"  stroke="black"/>
<path d="M174.073 127.717C174.073 128.611 173.349 129.336 172.455 129.336C171.561 129.336 170.836 128.611 170.836 127.717C170.836 126.823 171.561 126.099 172.455 126.099C173.349 126.099 174.073 126.823 174.073 127.717Z" fill="black"/>
<path d="M94.7604 45.2128C94.7604 46.1068 94.0356 46.8315 93.1416 46.8315C92.2476 46.8315 91.5228 46.1068 91.5228 45.2128C91.5228 44.3187 92.2476 43.594 93.1416 43.594C94.0356 43.594 94.7604 44.3187 94.7604 45.2128Z" fill="black"/>
<path d="M94.8089 69.6845C94.8089 70.5785 94.0842 71.3032 93.1902 71.3032C92.2962 71.3032 91.5714 70.5785 91.5714 69.6845C91.5714 68.7904 92.2962 68.0657 93.1902 68.0657C94.0842 68.0657 94.8089 68.7904 94.8089 69.6845Z" fill="black"/>
<path d="M94.8089 94.6586C94.8089 95.5526 94.0842 96.2774 93.1902 96.2774C92.2962 96.2774 91.5714 95.5526 91.5714 94.6586C91.5714 93.7645 92.2962 93.0398 93.1902 93.0398C94.0842 93.0398 94.8089 93.7645 94.8089 94.6586Z" fill="black"/>
<path d="M94.3928 118.384C94.3928 119.278 93.6681 120.003 92.7741 120.003C91.88 120.003 91.1553 119.278 91.1553 118.384C91.1553 117.49 91.88 116.765 92.7741 116.765C93.6681 116.765 94.3928 117.49 94.3928 118.384Z" fill="black"/>
<path d="M94.8334 33.6123L110.449 25.8202L127.988 36.0623L117.71 8.74677L111.157 3.22369C112.877 12.1358 109.8 14.3336 107.826 18.0743L94.8334 33.6123Z" stroke="black"/>
<path d="M98.2542 11.5094H91.4847V15.1884H98.2542V11.5094Z" fill="black"/>
<path d="M79.0846 13.0944C90.4503 10.4992 100.839 11.1296 110.823 13.0944" stroke="black"/>
</g>
</svg>
