<svg width="138" height="150" viewBox="0 0 138 150" xmlns="http://www.w3.org/2000/svg">
<g>
<path d="M52.6638 2.03822C52.0523 2.03555 49.5047 3.37782 48.3036 4.33629C47.6234 4.87903 40.5077 7.59257 35.6177 9.17376C30.0869 10.9622 28.501 11.3988 25.536 11.9607C20.8941 12.8405 18.2491 14.8774 16.1085 19.2141C15.5022 20.4423 14.7824 22.4091 14.5117 23.5862C14.2409 24.7633 13.8903 25.86 13.7339 26.0197C13.5774 26.1794 13.4511 26.8771 13.4511 27.5752C13.4511 28.794 13.3214 29.0545 11.4654 31.5702C11.204 31.9246 10.8809 33.1234 10.7466 34.2394C10.5693 35.7124 10.3124 36.4788 9.79792 37.0264C9.20284 37.6598 9.0427 38.2858 8.80803 40.9271C8.50522 44.3354 8.36205 44.9225 6.27428 51.5625C4.66731 56.6738 3.35117 61.7135 2.47384 66.081C1.80354 69.4172 1.24805 74.3418 1.45448 75.1491C1.52598 75.4286 2.15794 75.8669 2.85683 76.1213C3.55571 76.3758 4.89827 76.8637 5.8382 77.2055C11.1035 79.1201 12.7895 79.4446 18.1234 79.5683L23.2556 79.6861L24.328 80.7585C25.2633 81.6938 25.587 81.8309 26.9147 81.8309C27.7499 81.8309 28.4351 81.9287 28.4349 82.0548C28.434 82.6727 26.7997 88.7842 26.4551 89.4612C25.833 90.6836 25.6093 94.5617 26.0191 96.962C26.5685 100.18 26.4981 101.278 25.5418 104.445C24.5284 107.802 24.627 108.91 26.2725 112.659C27.3687 115.156 27.4349 116.389 26.5966 118.516C25.8983 120.287 25.8129 121.923 26.3667 122.894C26.6265 123.349 26.8058 125.941 26.9324 131.048C27.12 138.618 27.6688 142.913 28.5587 143.829C28.8545 144.133 29.3631 144.162 30.7506 143.941C32.7911 143.616 39.6247 143.968 42.0342 144.524C42.8756 144.718 45.2192 145.338 47.2371 145.897C50.9131 146.915 56.2515 148.043 58.5443 148.283C59.2169 148.354 62.7304 148.375 66.3456 148.33C71.6707 148.264 73.526 148.12 76.1267 147.582C81.5627 146.458 84.2853 145.593 90.2092 143.098C96.7265 140.352 101.5 138.898 105.258 138.514C106.795 138.357 107.41 138.159 107.626 137.754C108.016 137.026 108.001 130.484 107.603 127.478C107.429 126.162 106.997 124.242 106.642 123.212L106 121.344L107.126 118.716C109.299 113.655 109.618 109.658 108.027 107.315C107.435 106.441 107.301 105.962 107.456 105.24C109.258 96.849 109.543 89.806 108.339 83.3911L108.145 82.36L110.248 82.5957C114.048 83.0251 115.668 82.5938 117.508 80.6572C118.168 79.9618 118.767 79.6804 119.953 79.52C123.69 79.0145 128.604 77.7383 132.533 76.2498C136.183 74.8666 136.117 74.9817 135.137 71.7481C134.805 70.6504 134.106 68.2358 133.588 66.3861C132.337 61.9251 130.532 56.1061 128.662 50.5123C127.293 46.4176 127.156 45.7673 127.336 44.2136C127.592 42.0085 127.124 40.2623 126.01 39.27C125.206 38.5536 125.12 38.2745 124.932 35.6287C124.739 32.9192 123.554 27.3961 122.899 26.1717C122.734 25.8633 122.599 25.2678 122.599 24.8459C122.599 24.4241 122.228 23.0872 121.78 21.8763C120.542 18.5384 118.208 16.1907 114.208 14.2577C112.515 13.4395 109.272 12.137 107.002 11.3587C94.6718 7.131 92.2059 6.12301 89.1131 4.07006C87.6675 3.11051 87.2274 2.95233 86.7032 3.2039C83.9472 4.52675 76.0365 5.7022 69.8809 5.7022C63.7156 5.70213 59.3927 4.85067 54.8794 2.75024C54.0386 2.35898 53.0397 2.03893 52.6639 2.03729L52.6638 2.03822Z"/>
<path d="M52.6638 2.03822C52.0523 2.03555 49.5047 3.37782 48.3036 4.33629C47.6234 4.87903 40.5077 7.59257 35.6177 9.17376C30.0869 10.9622 28.501 11.3988 25.536 11.9607C20.8941 12.8405 18.2491 14.8774 16.1085 19.2141C15.5022 20.4423 14.7824 22.4091 14.5117 23.5862C14.2409 24.7633 13.8903 25.86 13.7339 26.0197C13.5774 26.1794 13.4511 26.8771 13.4511 27.5752C13.4511 28.794 13.3214 29.0545 11.4654 31.5702C11.204 31.9246 10.8809 33.1234 10.7466 34.2394C10.5693 35.7124 10.3124 36.4788 9.79792 37.0264C9.20284 37.6598 9.0427 38.2858 8.80803 40.9271C8.50522 44.3354 8.36205 44.9225 6.27428 51.5625C4.66731 56.6738 3.35117 61.7135 2.47384 66.081C1.80354 69.4172 1.24805 74.3418 1.45448 75.1491C1.52598 75.4286 2.15794 75.8669 2.85683 76.1213C3.55571 76.3758 4.89827 76.8637 5.8382 77.2055C11.1035 79.1201 12.7895 79.4446 18.1234 79.5683L23.2556 79.6861L24.328 80.7585C25.2633 81.6938 25.587 81.8309 26.9147 81.8309C27.7499 81.8309 28.4351 81.9287 28.4349 82.0548C28.434 82.6727 26.7997 88.7842 26.4551 89.4612C25.833 90.6836 25.6093 94.5617 26.0191 96.962C26.5685 100.18 26.4981 101.278 25.5418 104.445C24.5284 107.802 24.627 108.91 26.2725 112.659C27.3687 115.156 27.4349 116.389 26.5966 118.516C25.8983 120.287 25.8129 121.923 26.3667 122.894C26.6265 123.349 26.8058 125.941 26.9324 131.048C27.12 138.618 27.6688 142.913 28.5587 143.829C28.8545 144.133 29.3631 144.162 30.7506 143.941C32.7911 143.616 39.6247 143.968 42.0342 144.524C42.8756 144.718 45.2192 145.338 47.2371 145.897C50.9131 146.915 56.2515 148.043 58.5443 148.283C59.2169 148.354 62.7304 148.375 66.3456 148.33C71.6707 148.264 73.526 148.12 76.1267 147.582C81.5627 146.458 84.2853 145.593 90.2092 143.098C96.7265 140.352 101.5 138.898 105.258 138.514C106.795 138.357 107.41 138.159 107.626 137.754C108.016 137.026 108.001 130.484 107.603 127.478C107.429 126.162 106.997 124.242 106.642 123.212L106 121.344L107.126 118.716C109.299 113.655 109.618 109.658 108.027 107.315C107.435 106.441 107.301 105.962 107.456 105.24C109.258 96.849 109.543 89.806 108.339 83.3911L108.145 82.36L110.248 82.5957C114.048 83.0251 115.668 82.5938 117.508 80.6572C118.168 79.9618 118.767 79.6804 119.953 79.52C123.69 79.0145 128.604 77.7383 132.533 76.2498C136.183 74.8666 136.117 74.9817 135.137 71.7481C134.805 70.6504 134.106 68.2358 133.588 66.3861C132.337 61.9251 130.532 56.1061 128.662 50.5123C127.293 46.4176 127.156 45.7673 127.336 44.2136C127.592 42.0085 127.124 40.2623 126.01 39.27C125.206 38.5536 125.12 38.2745 124.932 35.6287C124.739 32.9192 123.554 27.3961 122.899 26.1717C122.734 25.8633 122.599 25.2678 122.599 24.8459C122.599 24.4241 122.228 23.0872 121.78 21.8763C120.542 18.5384 118.208 16.1907 114.208 14.2577C112.515 13.4395 109.272 12.137 107.002 11.3587C94.6718 7.131 92.2059 6.12301 89.1131 4.07006C87.6675 3.11051 87.2274 2.95233 86.7032 3.2039C83.9472 4.52675 76.0365 5.7022 69.8809 5.7022C63.7156 5.70213 59.3927 4.85067 54.8794 2.75024C54.0386 2.35898 53.0397 2.03893 52.6639 2.03729L52.6638 2.03822ZM52.2514 3.25793C52.4282 3.25793 52.8484 3.79356 53.1824 4.44816C54.2844 6.6082 57.5388 10.6296 59.4811 12.2317C63.2849 15.3692 67.727 16.8569 71.1419 16.1325C74.8314 15.3496 78.0387 13.7136 81.2706 10.9709C82.8688 9.6147 85.8883 6.26749 86.8565 4.78415L87.3514 4.03583L88.6182 4.87253C89.3149 5.33353 89.8851 5.85096 89.8851 6.02152C89.8851 6.74867 87.9666 10.0348 86.3852 12.0197C83.1451 16.0864 78.9161 18.5589 73.3751 19.6266C66.6554 20.9214 60.4136 18.9439 55.074 13.8228C52.2116 11.0775 49.2231 6.71652 49.2231 5.28504C49.2231 4.85488 51.6094 3.25811 52.2516 3.25811L52.2514 3.25793ZM91.8528 6.92298C91.899 6.92298 92.8865 7.31785 94.0447 7.79503C95.2028 8.27222 96.9776 8.94631 97.9865 9.29756C98.9954 9.64879 102.418 10.8356 105.593 11.9373C112.389 14.2951 115.813 15.8872 117.731 17.5761C119.215 18.8816 120.788 21.5232 121.355 23.6569C121.743 25.1149 121.626 25.434 119.428 28.9186L118.191 30.8806L117.767 29.8318C117.106 28.1967 116.52 27.7165 115.21 27.7165C114.271 27.7165 113.793 27.9468 112.817 28.8655C111.411 30.19 111.124 31.0892 110.066 37.4975C109.691 39.7675 109.33 41.6817 109.264 41.7516C109.199 41.8217 109.146 39.9937 109.146 37.6861C109.146 30.4625 107.897 23.7391 106.56 23.7391C105.795 23.7391 105.428 29.9164 105.859 35.5119C106.039 37.8518 106.235 40.2687 106.542 43.9201C107.272 52.6105 106.993 61.4313 105.758 68.6788C104.805 74.2757 104.563 75.1261 99.3534 90.8166C97.0028 97.8957 94.9425 104.112 94.7752 104.628C94.4079 105.762 94.3734 107.203 94.7163 107.203C95.3459 107.203 97.0351 104.875 101.151 98.3351L101.822 97.2686L101.616 98.1819C101.279 99.6541 99.863 103.615 97.7391 109.035C95.4605 114.85 94.157 117.699 92.7308 119.971C91.6146 121.749 91.4811 122.416 92.1887 122.688C93.0193 123.006 93.885 121.818 96.0127 117.444C98.4243 112.486 100.03 108.436 103.472 98.6414C104.034 97.044 104.591 95.4996 104.71 95.2062C104.97 94.5642 105.476 94.7926 105.476 95.5538C105.476 95.8533 105.912 96.9672 106.442 98.0286C107.49 100.125 107.49 100.183 106.407 105.523C105.868 108.18 99.5772 119.93 94.5691 127.642C92.8673 130.263 92.6408 131.201 93.7088 131.201C94.1319 131.201 94.8416 130.413 96.0422 128.603C98.5207 124.865 102.758 117.526 105.252 112.653C106.435 110.34 107.51 108.514 107.638 108.593C108.115 108.887 108.266 111.21 107.921 112.924C107.2 116.509 105.323 120.997 103.673 123.1C101.42 125.968 98.9219 128.629 97.3207 129.864C96.1129 130.796 95.687 131.322 95.7534 131.785C95.8036 132.135 96.0547 132.462 96.3073 132.51C97.006 132.643 100.447 129.612 103.178 126.464L105.617 123.648L105.971 124.52C106.534 125.931 107.065 131.276 106.955 134.413L106.855 137.318L105.935 137.4C101.906 137.759 96.059 139.516 89.4254 142.361C85.0014 144.259 80.1723 145.758 75.6553 146.633C71.8889 147.363 62.6811 147.703 58.6974 147.264C55.4883 146.91 50.5113 145.861 47.0838 144.812C43.2545 143.641 39.5719 142.973 36.8843 142.968C35.6838 142.966 34.4218 142.888 34.0855 142.797C33.3107 142.588 29.1243 134.409 29.4895 133.818C29.8485 133.237 31.8144 133.558 37.6031 135.149C41.7393 136.286 48.3941 137.957 50.9018 138.484C52.9668 138.919 54.5184 139.223 58.0903 139.893C62.1943 140.662 74.0917 141.755 78.2653 141.749C81.2483 141.744 87.8459 140.965 88.6827 140.517C89.177 140.253 89.2511 140.078 88.9832 139.81C88.5714 139.398 85.0099 139.47 83.4327 139.922C82.0303 140.324 78.9018 140.298 77.122 139.869C72.3198 138.71 63.1402 135.282 56.4531 132.15C54.7981 131.375 53.3884 130.742 53.3184 130.742C53.0377 130.742 47.1875 127.266 45.14 125.881C41.7843 123.611 38.107 119.559 35.8067 115.605C34.7321 113.758 33.1217 111.002 32.2301 109.483C28.3472 102.867 27.2256 98.0341 29.5726 98.0341C30.2354 98.0341 30.9829 98.6135 33.0195 100.715C35.176 102.94 36.0548 104.178 38.1811 107.974C41.4412 113.794 44.1569 117.884 46.7485 120.884C48.9237 123.403 50.1425 124.059 50.1425 122.711C50.1425 122.305 49.8452 121.711 49.4884 121.391C48.6973 120.681 46.1652 117.425 46.1652 117.119C46.1652 116.998 46.8851 117.582 47.7679 118.415C55.0607 125.303 67.1396 131.045 78.4188 132.987C85.9459 134.283 86.5206 134.326 86.5206 133.647C86.5206 133.395 86.4487 133.187 86.3615 133.187C85.7967 133.187 81.2863 131.828 80.1276 131.308C76.575 129.712 73.7812 128.181 73.2219 127.525C72.8856 127.13 71.6473 126.163 70.4702 125.374C59.3131 117.896 46.0849 102.686 39.1179 89.3195C38.0661 87.3016 36.9042 85.3533 36.5312 84.9886C35.1382 83.627 32.3092 73.2587 30.916 64.4007C28.975 52.0612 28.6226 36.712 29.9084 20.6927C30.098 18.3309 30.1833 18.0703 30.8806 17.7347C31.301 17.5324 35.1483 16.2299 39.4361 14.8416C43.724 13.4533 47.8055 12.0674 48.5043 11.7599C49.203 11.4524 49.9633 11.2761 50.1895 11.371C50.4156 11.4659 51.1912 12.2877 51.9159 13.1917C53.5192 15.1916 56.6991 17.8078 59.1102 19.1133C63.0738 21.2594 68.051 22.1965 72.3677 21.6058C80.3141 20.5182 86.2084 16.4872 90.392 9.29112C91.1496 7.98795 91.8071 6.92235 91.8533 6.92254L91.8528 6.92298ZM23.6331 21.4944C24.0613 21.419 24.0811 21.957 23.6449 23.0676C23.1056 24.4405 22.3959 24.7236 21.6768 23.8572C21.3231 23.4311 21.4282 23.226 22.4369 22.3017C22.9738 21.8096 23.376 21.5397 23.633 21.4944L23.6331 21.4944ZM20.5103 25.2654C20.6447 25.2654 21.1173 25.5807 21.5591 25.9607L22.3604 26.6501L21.895 28.6357C21.6393 29.727 21.353 31.134 21.2527 31.7645C21.1524 32.3951 20.9619 32.9135 20.8344 32.9135C20.5463 32.9135 18.6483 30.9745 18.6483 30.6803C18.6483 30.5622 18.8383 30.4682 19.0725 30.4682C19.6536 30.4682 19.8861 29.7597 20.0919 27.3336C20.1882 26.1986 20.3759 25.2653 20.5103 25.2653L20.5103 25.2654ZM122.286 28.0171C122.688 28.0171 123.519 31.926 123.93 35.7361C124.284 39.0108 124.383 39.3583 125.127 39.943C126.179 40.7711 126.559 42.202 126.246 44.1796C126.026 45.5706 126.126 46.1339 127.077 48.8875C129.855 56.9347 133.652 69.6753 133.358 69.9524C133.045 70.2474 130.438 71.0079 125.067 72.3742C122.475 73.0336 120.172 73.5762 119.947 73.5762C119.448 73.5762 119.424 72.0424 119.829 65.7278C119.989 63.2342 120.191 54.3444 120.277 45.977L120.436 30.7632L121.238 29.3903C121.68 28.6354 122.152 28.0175 122.286 28.0175L122.286 28.0171ZM115.169 29.608C115.953 29.6136 116.172 30.0953 116.135 31.3816C116.109 32.2873 115.801 32.7326 114.137 34.2747L112.175 36.0954L112.37 34.7343C112.477 33.9845 112.674 32.9585 112.812 32.454C112.95 31.9495 113.147 31.1649 113.248 30.7099C113.393 30.0543 113.66 29.8365 114.532 29.6728C114.777 29.627 114.988 29.6067 115.169 29.608V29.608ZM17.6575 32.9431C17.8711 32.9414 18.3153 33.2785 19.1895 34.0627L20.804 35.5122L20.4504 36.7318C20.0869 37.9991 20.1919 44.4021 20.7686 56.2997C20.9235 59.4945 21.1959 65.5881 21.3696 69.8399C21.5433 74.0918 21.7637 77.6938 21.8587 77.8475C21.9537 78.0012 21.7585 78.2719 21.4285 78.4485C19.964 79.2323 11.1879 78.3502 10.3453 77.3349C10.1473 77.0963 9.99196 76.2568 9.99766 75.4671C10.0039 74.6053 9.81782 73.8148 9.53806 73.4931C9.14135 73.0371 9.12966 72.7658 9.45557 71.6606C10.2547 68.9508 12.5192 66.2611 15.6836 64.26C16.6601 63.6425 17.5354 62.9398 17.6279 62.6986C18.0323 61.6449 17.2724 60.4584 14.3696 57.6313L11.3411 54.6851L11.6593 53.5067C11.8349 52.8575 12.3786 50.8932 12.8672 49.1406C13.3557 47.3879 13.7569 45.5953 13.7569 45.1575C13.7569 43.993 14.5641 43.028 16.0844 42.3763C17.5786 41.7358 17.7537 41.1658 16.9446 39.6011C16.5125 38.7654 16.5154 38.4361 16.9387 36.1777C17.1964 34.803 17.4452 33.4403 17.4926 33.1492C17.5138 33.0188 17.5605 32.9438 17.6576 32.943L17.6575 32.9431ZM118.432 33.8741C118.453 33.8736 118.475 33.8812 118.491 33.8977C118.752 34.1579 117.971 73.7649 117.684 74.8491C117.357 76.0842 116.082 77.3246 114.42 78.019C113.831 78.265 113.085 78.4668 112.758 78.4668C112.178 78.4668 112.168 78.2351 112.369 68.7565C112.545 60.4947 112.666 58.7116 113.183 56.7599C114.113 53.2449 114.523 51.5728 114.944 49.5714C115.157 48.5625 115.436 47.3242 115.569 46.8197C115.702 46.3152 116.04 44.5989 116.317 43.0015C116.595 41.4041 116.955 39.5171 117.113 38.8121C117.271 38.1071 117.401 37.1072 117.401 36.5849C117.401 35.729 118.124 33.8839 118.433 33.8745L118.432 33.8741ZM115.94 34.8994L115.769 35.8186C115.674 36.323 115.51 37.3539 115.404 38.1106C115.056 40.5898 112.912 50.9487 112.705 51.1561C112.64 51.2216 112.503 50.8526 112.399 50.3311C112.295 49.8097 112.071 49.4675 111.904 49.5711C111.736 49.6745 111.47 50.1995 111.315 50.7377C110.94 52.0323 110.9 45.605 111.262 42.4828C111.484 40.5618 111.691 40.0312 112.894 38.3524C113.653 37.2936 114.651 36.086 115.109 35.6655L115.94 34.8995L115.94 34.8994ZM133.764 71.8441C134.034 71.8232 134.219 72.0281 134.33 72.4687C134.432 72.8785 134.596 73.4201 134.695 73.6765C134.813 73.9851 134.573 74.299 133.988 74.6016C132.524 75.3588 127.54 76.9327 124.124 77.7186C120.442 78.566 119.234 78.6488 119.234 78.0485C119.234 77.8198 119.319 77.0163 119.422 76.2632C119.591 75.029 119.677 74.9081 120.324 75.0317C120.992 75.1595 124.632 74.4922 126.723 73.8591C127.227 73.7064 128.88 73.2316 130.394 72.7985C131.907 72.3655 133.372 71.9408 133.646 71.8617C133.688 71.8495 133.725 71.847 133.764 71.844L133.764 71.8441ZM24.5702 72.0856C24.5765 72.0828 24.5805 72.0847 24.5878 72.0915C24.7058 72.2002 25.2854 73.9855 25.8782 76.0628C26.4711 78.1401 27.0328 80.0816 27.1215 80.3759C27.2362 80.7561 27.1097 80.9121 26.6914 80.9121C25.6043 80.9121 25.0147 80.1885 24.9355 78.7555C24.8942 78.0082 24.7515 76.1561 24.6173 74.6428C24.4915 73.224 24.4749 72.1279 24.5702 72.0856ZM117.26 78.7144C117.351 78.7012 117.401 78.7115 117.401 78.7497C117.401 79.2397 115.826 80.9214 114.933 81.3836C113.898 81.9186 112.325 81.9689 112.022 81.4779C111.781 81.088 112.683 80.2994 113.371 80.2994C113.612 80.2994 114.617 79.888 115.604 79.3861C116.345 79.0097 116.986 78.7539 117.26 78.7144L117.26 78.7144ZM28.7183 85.9794C28.7924 85.9857 28.8668 86.1477 28.9776 86.4154C29.4694 87.6042 30.5121 90.4668 30.7275 91.2293C30.8344 91.6077 30.8752 91.9136 30.8218 91.907C30.7685 91.9003 30.0613 91.2821 29.2486 90.5341L27.7696 89.173L28.2175 87.4112C28.4782 86.3828 28.5948 85.969 28.7183 85.9794V85.9794ZM33.7975 93.6512C33.9134 93.6903 34.4564 94.5074 35.1704 95.7369C39.3585 102.95 43.4532 107.769 49.2233 112.271C52.521 114.844 55.0329 117.297 55.0329 117.951C55.0329 119.139 52.2659 118.196 48.3923 115.688C45.3091 113.692 43.8141 112.008 41.0801 107.474C39.7227 105.223 38.0316 102.445 37.3268 101.299C36.0874 99.2855 34.2316 95.3195 33.7915 93.7515C33.7694 93.6727 33.7706 93.6423 33.7974 93.6513L33.7975 93.6512ZM25.9609 107.05L26.5384 108.429C29.9263 116.521 34.1479 123.323 37.3859 125.905C38.7182 126.968 47.1991 131.352 47.927 131.355C48.2311 131.357 52.2628 133.012 53.4009 133.6C53.9007 133.859 54.4904 134.286 54.709 134.549C55.2829 135.241 54.84 135.142 50.1424 133.577C46.5204 132.37 38.0902 128.815 32.4835 126.123C30.4245 125.135 28.5552 124.326 28.3295 124.326C28.1037 124.326 27.6626 123.562 27.3455 122.629C26.77 120.936 26.7671 120.927 27.4457 119.035C28.3886 116.406 28.3265 114.735 27.1982 112.324C26.6885 111.234 26.2059 109.606 26.1199 108.7L25.9608 107.05L25.9609 107.05ZM27.929 125.852C28.0037 125.852 29.8338 126.717 31.9946 127.773C34.1556 128.829 36.9557 130.198 38.2168 130.814C40.8668 132.107 40.8231 132.124 37.1444 131.214C33.0019 130.19 30.4659 129.763 29.1545 129.877L27.9761 129.983L27.8818 127.914C27.8321 126.78 27.8542 125.852 27.9289 125.852L27.929 125.852Z" fill="black" fill-opacity="0.071066"/>
<path d="M53.0277 0.260195C52.9636 0.257178 52.8973 0.261704 52.8274 0.266078C52.8232 0.265992 52.8198 0.266097 52.8156 0.266078C52.7619 0.26589 52.6987 0.277335 52.633 0.289647C52.6256 0.290967 52.6169 0.288139 52.6094 0.289647C51.7693 0.422627 50.5182 1.02579 48.4024 2.26943C44.4253 4.60709 31.9521 9.019 25.8819 10.2357C22.3745 10.9389 20.1273 11.8582 18.275 13.3468C16.8618 14.4825 14.7274 17.5854 13.7852 19.8754C12.8183 22.2249 11.5639 26.5854 11.5639 27.5883C11.5639 28.1433 11.1637 29.0003 10.521 29.8332C9.43338 31.2426 8.81512 32.965 8.81222 34.5882C8.81128 35.1141 8.61884 35.7057 8.3821 35.9022C7.44843 36.6771 6.94158 38.413 6.81476 41.2701C6.71281 43.5666 6.43404 44.9201 5.46545 47.9107C2.74334 56.3155 0.856132 63.5944 0.403987 67.4144C0.339646 67.958 0.238492 69.3817 0.150612 70.9614C0.146746 71.0309 0.142647 71.0917 0.138827 71.1618C0.0930509 71.8535 0.0496106 72.5407 0.0268751 73.171C0.00062308 73.8988 -0.01214 74.4673 -0.0202627 74.9504C-0.0387521 76.05 -0.00403979 76.612 0.121151 76.9361C0.123202 76.9433 0.124941 76.9525 0.127043 76.9596C0.327925 77.6403 0.759293 77.8042 1.57065 77.9731C2.10551 78.0844 3.29732 78.4938 4.22205 78.8805C5.93962 79.5987 9.10082 80.5824 11.5639 81.1725C12.3205 81.3538 15.0677 81.5825 17.674 81.6792C22.1046 81.8437 22.4665 81.9011 23.1892 82.5749C23.6143 82.9712 24.4208 83.4581 24.9804 83.6531C25.281 83.7579 25.4915 83.8317 25.6345 83.9242C25.6366 83.9255 25.6382 83.9287 25.6403 83.9301C25.7269 83.9969 25.7925 84.079 25.8466 84.1716C25.927 84.3757 25.8859 84.6796 25.7994 85.2205C25.6926 85.8885 25.3186 87.2119 24.9686 88.1607C24.6186 89.1095 24.2052 90.7107 24.0436 91.7196C23.7211 93.732 23.9311 97.8102 24.4501 99.5504C24.7227 100.464 24.6739 100.945 24.1732 102.302C22.5702 106.646 22.6417 109.6 24.4324 113.385C25.4828 115.605 25.5276 116.408 24.7094 118.317C24.0198 119.926 23.9078 122.456 24.4796 123.461C24.7386 123.916 24.9181 126.555 25.0452 131.769C25.2025 138.22 25.3349 139.86 25.9173 142.275C26.4687 144.561 26.6737 145.542 27.7026 145.928C27.7087 145.93 27.7142 145.932 27.7203 145.934C28.0113 146.078 28.3611 146.136 28.7927 146.128C29.5984 146.183 30.6912 146.134 32.2515 146.075C37.7949 145.865 40.7329 146.228 46.334 147.808C50.5669 149.001 52.535 149.418 56.1975 149.911C56.5433 149.958 57.1796 150.005 57.971 150.047C58.1639 150.088 58.3004 150.128 58.3245 150.153C58.4236 150.252 60.4736 150.256 63.1209 150.211C63.1446 150.212 63.1679 150.211 63.1916 150.211C63.6626 150.219 64.1368 150.22 64.6057 150.223C75.5272 150.299 80.2381 149.382 90.59 145.156C98.6485 141.867 101.43 141.033 106.081 140.513C107.431 140.362 108.674 140.106 108.838 139.941C110.188 138.591 109.84 126.487 108.349 122.919C107.923 121.898 107.947 121.721 108.767 119.731C110.301 116.012 110.732 114.19 110.73 111.441C110.727 109.333 110.596 108.585 110.028 107.487C109.256 105.995 109.264 105.647 110.193 100.894C110.601 98.8106 110.739 96.5263 110.753 91.5073L110.771 84.8963L111.065 84.8786H112.644C114.876 84.8786 116.497 84.2666 117.953 82.8694C118.903 81.9584 119.406 81.7684 122.437 81.196C128.477 80.0556 135.762 77.584 137.003 76.2524C137.154 76.0901 137.264 75.9564 137.339 75.7987C137.341 75.7949 137.343 75.7908 137.345 75.7869C137.464 75.6061 137.521 75.4259 137.521 75.2448C137.521 75.0992 137.456 74.7451 137.35 74.2726C137.269 73.7591 137.138 73.0921 136.95 72.1514C136.391 69.3533 132.197 55.5157 130.003 49.2255C129.071 46.5537 128.961 45.9319 129.131 44.3173C129.365 42.0843 128.955 40.4085 127.787 38.7963C127.113 37.8661 126.877 37.1209 126.721 35.4613C126.35 31.5164 124 22.2962 122.726 19.7879C120.398 15.2043 116.918 13.0936 104.866 8.96396C96.2278 6.00371 92.749 4.56997 90.3716 2.97746C89.148 2.15789 87.8999 1.39216 87.5963 1.2805C87.2806 1.16435 86.3004 1.38969 85.3043 1.8049C81.8702 3.23629 76.0962 4.10711 69.9551 4.1205C63.3924 4.13477 59.8074 3.31829 53.5392 0.384921C53.3866 0.313473 53.219 0.270252 53.0266 0.261184L53.0277 0.260195ZM52.4385 2.9116C52.4407 2.91254 52.4421 2.91047 52.4444 2.9116C52.4464 2.91254 52.4483 2.91647 52.4503 2.91748L53.9116 5.42748C55.7579 8.60513 60.1245 13.0351 62.7793 14.4308C63.7914 14.9629 65.6472 15.6357 66.9039 15.9215C68.8814 16.3713 69.4536 16.3867 71.1757 16.0512C73.6001 15.5787 76.3209 14.3917 78.7119 12.7573C80.4827 11.547 84.9738 7.10496 86.4955 5.0622L87.285 4.00748L88.705 4.90898C89.5864 5.46585 90.1306 6.03388 90.131 6.39382C90.1317 7.22565 88.2868 10.3898 86.5543 12.5276C83.3022 16.5407 79.0768 19.0854 73.8507 20.1756C64.4944 22.1275 54.5619 17.0534 49.8689 7.92561C48.5216 5.30494 48.5626 5.13713 50.8823 3.80105L52.4379 2.91132L52.4385 2.9116ZM54.8661 4.19611C55.1293 4.21187 56.0576 4.48783 57.111 4.86782C60.9128 6.23921 62.6429 6.61467 67.1691 6.69441C68.9263 6.8776 70.0511 6.8776 72.207 6.69441C77.1732 6.60566 80.4074 6.20985 83.4022 5.35098C83.9713 5.18776 84.491 5.10815 84.5571 5.17422C84.6231 5.24028 83.8061 6.21227 82.7423 7.33086C80.7821 9.39192 80.6586 9.45244 77.1387 10.2534C75.2787 10.6767 67.6446 10.8575 65.0892 10.5362C63.8427 10.3795 61.705 9.90557 60.3341 9.48742C57.8484 8.72922 57.8337 8.72577 56.2508 6.53546C55.3779 5.32749 54.725 4.2785 54.7954 4.20799C54.8042 4.19918 54.8286 4.19396 54.8662 4.1962L54.8661 4.19611ZM47.3063 5.98146C47.3086 5.98165 47.3099 5.98702 47.3122 5.98734L48.6144 8.48565C49.6553 10.4864 50.5978 11.6786 53.2869 14.3837C56.032 17.1452 57.1098 18.0031 59.1026 19.0149C65.1583 22.0896 70.8204 22.5508 77.0443 20.4762C82.699 18.5913 87.6013 14.2487 90.6023 8.46189C91.2079 7.29417 91.5824 6.87255 91.9339 6.98293C92.2037 7.06764 93.7363 7.6487 95.3337 8.26743C96.9311 8.88617 101.177 10.4037 104.773 11.6436C116.739 15.7701 119.565 17.7412 121.324 23.1865L121.919 25.019C121.923 25.0831 121.926 25.1492 121.925 25.2076C121.925 25.2516 121.915 25.3039 121.902 25.3667L120.552 27.7824C119.764 29.1868 118.794 30.7313 118.396 31.2176C117.692 32.0782 117.67 32.0846 117.659 31.4003C117.647 30.6112 116.829 28.8563 116.31 28.5132C115.774 28.1583 114.138 28.2452 113.735 28.6487C112.967 29.4171 113.317 29.8266 114.566 29.6268C115.568 29.4665 115.811 29.5373 116.092 30.0628C116.595 31.002 116.524 33.1739 115.992 33.1739C115.753 33.1739 114.737 34.079 113.735 35.1892C112.733 36.2992 111.84 37.0909 111.749 36.945C111.589 36.6847 111.825 35.2964 112.598 31.9484C112.812 31.0236 112.919 30.1587 112.84 30.0216C112.494 29.4272 111.634 30.8566 111.272 32.6259C110.349 37.1428 110.209 38.0253 109.823 41.688C109.652 43.308 109.141 55.6782 108.786 66.8012C108.617 72.098 108.374 77.3276 108.244 78.4207C108.108 79.5579 106.878 83.7404 105.368 88.2017C103.917 92.4896 102.286 97.3736 101.744 99.0551C99.3671 106.437 95.2147 116.616 93.177 120.056C92.5119 121.178 91.9691 122.181 91.9691 122.289C91.9691 122.398 92.2619 122.443 92.6231 122.389C94.0753 122.173 98.2825 112.746 102.964 99.2088C103.342 98.1159 104.111 96.054 104.673 94.6248C105.234 93.1955 106.131 90.7568 106.664 89.2039C107.198 87.6511 107.754 86.4551 107.902 86.5465C108.279 86.7797 108.237 95.1273 107.843 98.278C106.965 105.299 106.386 107.331 103.848 112.29C101.382 117.108 98.5304 122.097 95.0978 127.592C93.7493 129.75 93.2221 130.854 93.4362 131.068C93.6086 131.241 93.8923 131.294 94.0666 131.186C94.8648 130.693 102.195 118.178 105.35 111.924C107.155 108.348 107.385 108.029 107.76 108.541C108.45 109.484 108.408 112.44 107.672 115.105C106.897 117.913 105.096 121.889 103.795 123.667C103.118 124.591 101.066 126.827 99.2341 128.634C96.0439 131.779 95.1973 133.191 97.2072 132.004C98.1914 131.423 102.734 126.835 104.555 124.586L105.669 123.207L106.01 124.079C106.623 125.661 107.099 129.866 107.218 133.194C107.218 133.222 107.218 133.249 107.218 133.277C107.216 133.531 107.207 133.784 107.2 134.037L107.124 136.965V136.971C107.067 137.327 106.989 137.572 106.888 137.672C106.686 137.874 106.06 138.038 105.498 138.038C102.633 138.038 96.9551 139.752 89.5238 142.857C82.701 145.708 77.2857 147.164 71.1283 147.813C68.4613 148.094 62.2928 148.155 59.8682 147.925C55.9667 147.554 50.9073 146.506 46.0627 145.067C42.1588 143.907 36.8367 143.195 32.5577 143.258C30.737 143.285 29.1325 143.187 28.993 143.04C28.4038 142.421 27.775 136.613 27.6554 130.684C27.5533 125.618 27.4214 124.101 26.9719 122.836C26.7088 122.095 26.5696 121.694 26.5713 121.274C26.5736 121.215 26.5786 121.152 26.5831 121.092C26.584 121.078 26.5879 121.064 26.5889 121.05C26.636 120.647 26.8022 120.166 27.0957 119.33C28.0445 116.628 27.9718 115.024 26.7893 112.477C25.456 109.606 25.4234 107.152 26.6714 103.421L27.5612 100.752L27.0544 98.6364C26.3045 95.5292 26.3905 92.4408 27.3078 89.5505C27.7279 88.2268 28.1534 86.6941 28.2565 86.1448C28.4738 84.9863 28.8471 84.8448 29.0814 85.8326C29.5359 87.7498 33.0581 97.3395 34.3962 100.304C37.0493 106.181 41.8542 114.464 45.1142 118.776C46.4735 120.574 49.1398 123.36 49.4981 123.36C50.1572 123.36 49.6773 122.361 48.2195 120.703C47.3607 119.726 46.0704 118.106 45.3557 117.097C42.1692 112.597 35.8486 100.519 33.3533 94.165C32.3296 91.5577 30.3671 85.5654 28.5453 79.4935C28.0912 77.9801 27.5996 76.3961 27.4552 75.9759C26.3903 72.8755 24.8198 63.3976 25.1277 61.9288C25.2182 61.4974 25.1006 59.976 24.8685 58.5466C23.7502 51.6595 23.5447 44.227 24.2852 37.7588C25.1063 30.5861 25.1319 29.2238 24.4973 27.524C24.0622 26.3587 23.607 25.7907 22.5588 25.0965C21.8059 24.5979 21.0847 24.0083 20.9502 23.7884C20.5908 23.2005 19.2727 23.3055 18.9291 23.9475C18.7657 24.2528 18.5857 25.3874 18.5285 26.4693C18.4712 27.5513 18.2914 28.4263 18.1278 28.4197C17.6661 28.4008 15.4587 24.5765 15.4587 23.7944C15.4587 22.7235 16.7399 19.7629 18.0395 17.8256C19.8938 15.0612 21.6049 13.9852 25.4756 13.1473C31.0451 11.9415 41.0862 8.74948 45.562 6.76008L47.3061 5.98231L47.3063 5.98146ZM60.9882 11.2373C61.1121 11.2314 61.3524 11.271 61.7306 11.3375C62.3043 11.4384 63.2515 11.6761 63.8401 11.8619C65.3992 12.354 75.0103 12.3135 76.473 11.8089C77.1149 11.5874 77.7128 11.4754 77.7988 11.5614C78.023 11.7856 75.4296 13.2541 73.5447 13.9713C71.6929 14.6758 68.1966 14.9401 66.474 14.5075C64.9981 14.1368 61.9149 12.5145 61.2123 11.738C60.895 11.3874 60.7818 11.247 60.9884 11.2372L60.9882 11.2373ZM20.4667 25.2902C21.2296 25.3192 22.8073 27.0984 23.1771 28.4191C23.5324 29.6883 23.4075 33.1404 22.965 34.2936C22.8794 34.5165 22.7195 34.6974 22.6114 34.6942C22.0526 34.6777 19.4796 32.7723 18.64 31.754C17.4551 30.3165 17.388 29.7223 18.4396 29.9863C19.353 30.2155 19.4585 30.0056 19.7536 27.3643C19.8726 26.2986 20.1308 25.3724 20.3251 25.308C20.3682 25.2937 20.4157 25.2884 20.4666 25.2903L20.4667 25.2902ZM122.331 27.5528C122.441 27.5593 122.512 27.7244 122.614 27.9948C123.185 29.505 124.04 34.0092 124.246 36.5974C124.438 39.0058 124.538 39.3314 125.325 40.0326C126.407 40.9971 126.641 41.8936 126.426 44.2633C126.274 45.9482 126.418 46.5871 127.929 51.0335C129.377 55.296 133.778 69.5826 133.845 70.2299C133.842 70.2477 133.844 70.2652 133.839 70.2829C133.589 70.5585 129.547 71.8661 127.128 72.4454C126.035 72.7071 124.658 73.0495 124.07 73.2055C123.481 73.3615 122.346 73.653 121.548 73.8536C120.056 74.2284 119.52 75.0556 120.77 75.0556C121.653 75.0556 127.089 73.7159 130.91 72.5573C132.57 72.0541 134.026 71.7578 134.151 71.8974C134.276 72.037 134.543 72.6346 134.74 73.2231C135.061 74.1786 135.03 74.3458 134.469 74.8023C133.616 75.497 128.021 77.3307 123.916 78.261C122.067 78.6803 120.169 79.0255 119.697 79.027L118.837 79.0329L119.002 76.511C119.388 70.5291 119.581 63.1739 119.756 47.5383L119.945 30.9575C119.976 30.8835 120.012 30.8066 120.051 30.7218L121.135 29.0602C121.855 27.9647 122.148 27.541 122.331 27.5517L122.331 27.5528ZM14.2388 27.9771C14.3652 27.9771 14.8086 28.6289 15.2287 29.4266C15.9925 30.8769 19.2775 34.2478 21.551 35.9199L22.753 36.8096L22.4879 39.3492C22.191 42.1528 22.4397 52.2001 22.8944 55.7945C23.054 57.0556 23.3057 59.8779 23.4601 62.0638C23.6145 64.2497 23.8848 66.8647 24.0552 67.8734C24.4177 70.0193 25.9745 76.1026 26.8776 78.8979C27.2238 79.9693 27.4206 80.9874 27.3136 81.1605C26.903 81.8249 25.7963 81.4329 24.6798 80.2236C23.4397 78.8804 23.2771 78.8404 20.2724 79.1924C20.1143 79.211 19.9479 79.2264 19.7833 79.2396L18.4222 79.2278C17.7257 79.22 17.1396 79.2089 16.6015 79.1983C12.9857 78.8836 8.55246 77.7266 4.06871 75.8751C2.56213 75.253 2.22155 74.9736 2.14191 74.3196C2.08493 73.8513 2.21883 73.4599 2.46599 73.365C2.69716 73.2763 4.30561 73.6973 6.04262 74.3019C8.29222 75.0849 9.29701 75.3076 9.53082 75.0738C10.126 74.4786 8.75138 73.566 5.6361 72.4812C4.10033 71.9464 2.80105 71.4699 2.58384 71.3617C2.56105 71.3257 2.54122 71.2879 2.52491 71.2497C2.51678 70.4764 3.57712 64.7068 4.25133 61.9223C5.09315 58.4454 7.51816 50.1839 8.21675 48.4115C8.89178 46.6989 9.72378 42.1397 9.72515 40.1507C9.72589 39.078 9.91785 38.4975 10.4852 37.8232C11.4931 36.6254 11.8699 35.5545 11.8699 33.8872C11.8699 32.7478 12.0553 32.2828 12.9364 31.2533C13.6934 30.3689 14.0088 29.7088 14.0088 28.9907C14.0088 28.4324 14.1122 27.9772 14.2386 27.9772L14.2388 27.9771ZM118.647 33.4884C118.668 33.4909 118.685 33.4971 118.7 33.512C118.926 33.7374 118.329 72.6665 118.076 74.2919C117.794 76.0989 117.14 77.0057 115.318 78.11C114.057 78.8744 113.215 79.1386 111.641 79.2649L109.603 79.4299L109.809 78.2397C110.229 75.8253 110.605 64.5444 110.587 54.8819C110.569 45.4257 110.843 41.2086 111.565 39.845C112.122 38.7923 115.53 34.7011 115.848 34.7011C116.069 34.7011 116.111 35.2398 115.978 36.3097C115.394 41.0199 113.137 51.8095 112.319 53.8095C112.113 54.3139 111.69 55.724 111.376 56.9442C110.917 58.7286 110.878 59.2366 111.188 59.5426C111.496 59.8464 111.652 59.82 111.966 59.3953C112.289 58.9579 113.541 54.2169 115.212 47.0865C115.691 45.0437 116.342 41.4214 116.726 38.6782C116.927 37.2489 117.147 35.8032 117.216 35.467C117.36 34.7569 118.33 33.451 118.647 33.4872L118.647 33.4884ZM117.357 78.4221C118.473 78.4221 116.31 81.3007 114.682 81.981C113.717 82.384 112.617 82.4602 111.382 82.199C111.046 82.1279 110.458 82.0028 110.08 81.922C108.892 81.6685 109.246 80.8673 110.545 80.8673C111.821 80.8673 114.355 80.0238 116.002 79.0525C116.59 78.7052 117.198 78.4221 117.357 78.422V78.4221ZM36.1025 85.7991C35.445 85.7641 35.673 86.6129 36.9687 89.2048C44.0354 103.342 57.2172 118.634 69.8011 127.286C71.9302 128.751 73.6724 129.043 72.7766 127.787C72.6531 127.614 71.1387 126.472 69.4121 125.248C65.2715 122.312 63.1443 120.532 59.1419 116.651C51.4021 109.146 43.5974 98.806 38.7199 89.5881C37.5358 87.3504 36.5776 85.8801 36.251 85.8171C36.1994 85.8071 36.1476 85.8017 36.1037 85.7994L36.1025 85.7991ZM28.3777 125.142C28.1484 125.161 28.0714 125.293 28.0714 125.519C28.0714 125.865 32.8877 128.307 37.9526 130.528C39.9989 131.425 42.6382 132.618 43.8154 133.173C44.9924 133.728 47.3999 134.693 49.1655 135.324C52.4297 136.49 54.2093 136.707 54.2093 135.937C54.2093 135.855 54.0605 135.739 53.8086 135.595C53.8045 135.591 53.801 135.587 53.7968 135.583C53.6866 135.492 53.5376 135.415 53.3843 135.371C53.3783 135.369 53.3728 135.367 53.3667 135.365C52.7145 135.061 51.7073 134.677 50.3853 134.234C46.0275 132.771 38.8452 129.775 32.7675 126.88C30.107 125.613 28.8824 125.101 28.3778 125.142L28.3777 125.142Z" fill="black"/>
</g>
</svg>
