<svg width="57" height="50" viewBox="0 0 57 50" fill="none" xmlns="http://www.w3.org/2000/svg">
<path d="M48.1883 0.275203C47.8184 0.273895 47.4612 0.280025 47.1336 0.278289C46.086 0.347425 45.0299 0.415999 43.9966 0.596863C40.7379 1.76168 37.2639 2.92581 34.8083 5.48507C33.7571 6.67643 33.799 8.46655 34.4941 9.8289C35.7762 14.1085 37.1428 18.3838 37.891 22.7974C37.8484 23.0919 38.0058 23.8492 37.5497 23.8214C36.0639 21.5708 34.1274 19.4813 31.6181 18.3832C30.2206 17.3541 28.2811 17.5246 26.8577 18.4011C23.8509 20.2036 20.8163 21.9634 17.6922 23.556C13.1441 24.9375 8.2799 24.5073 3.68978 25.6647C2.52743 26.0215 1.15768 26.3609 0.456444 27.4523C-0.0114568 29.6776 0.415087 32.0263 1.16015 34.148C2.15521 36.3807 3.357 38.7288 5.49774 40.059C5.89157 40.3738 6.52311 40.2683 6.78854 40.7485C8.50398 43.4855 10.433 46.1664 12.9861 48.1868C13.999 48.9146 15.1256 49.6707 16.4101 49.7436C19.5589 49.3646 22.7478 47.4441 23.7669 44.3089C24.0916 41.8787 22.6515 39.7176 21.5034 37.7046C22.341 35.9503 24.0095 34.5583 25.9478 34.2219C28.4756 33.5034 31.0101 32.8064 33.5478 32.1268C33.7497 32.0249 33.7212 32.2805 33.5978 32.3577C31.9712 33.7793 30.4644 35.3552 28.6502 36.549C26.6447 38.6169 26.1002 41.9479 27.283 44.57C28.4132 46.6861 30.9441 47.3923 33.162 47.6348C37.6824 47.6873 42.733 47.4064 46.4052 44.4299C48.1651 42.3243 49.6837 40.0194 51.0294 37.6336C52.8294 36.7811 54.4454 35.383 55.2725 33.541C56.1213 30.549 56.0775 27.2256 54.7627 24.3725C53.7756 21.7225 52.7071 19.0718 52.246 16.2669C52.2874 11.5009 52.1516 6.73175 52.3424 1.96817C51.6319 0.427062 49.7911 0.280642 48.1887 0.274963L48.1883 0.275203Z" fill="white"/>
<path d="M48.1881 0.276003C47.8183 0.274694 47.4607 0.280827 47.1333 0.279089C46.0859 0.348225 45.0296 0.416803 43.9965 0.597672C40.7378 1.76246 37.2637 2.92661 34.8079 5.48567C33.757 6.67728 33.7985 8.4674 34.4938 9.82987C35.7758 14.1094 37.1427 18.3849 37.8909 22.7983C37.8479 23.0926 38.0054 23.8501 37.5496 23.8225C36.0637 21.5716 34.1269 19.4822 31.6178 18.3839C30.2202 17.3548 28.281 17.5257 26.8573 18.4017C23.8509 20.2042 20.8158 21.9642 17.6918 23.5568C13.1437 24.9385 8.2795 24.5084 3.68938 25.6654C2.52715 26.0225 1.15743 26.3617 0.456191 27.4531C-0.0116952 29.6783 0.414848 32.0274 1.15989 34.1489C2.15496 36.3815 3.35673 38.7296 5.49728 40.06C5.89135 40.3746 6.52296 40.2694 6.78814 40.7494C8.5037 43.4867 10.4326 46.1671 12.9857 48.1879C13.999 48.9153 15.1254 49.6699 16.4099 49.7439C19.5585 49.3657 22.7476 47.4452 23.7669 44.3099C24.0914 41.8797 22.6514 39.7188 21.5032 37.7059C22.3407 35.9514 24.0094 34.5592 25.9476 34.223C28.4751 33.5044 31.0099 32.8076 33.5476 32.1276C33.7496 32.0259 33.721 32.2817 33.5975 32.3588C31.9709 33.7805 30.4642 35.3563 28.6499 36.5499C26.6444 38.618 26.0997 41.9489 27.2825 44.5711C28.4128 46.6871 30.9437 47.3933 33.162 47.6358C37.682 47.6886 42.7328 47.4076 46.4049 44.4309C48.1649 42.3257 49.6839 40.0205 51.0272 37.6348C52.8296 36.7825 54.4444 35.3839 55.2741 33.542C56.1185 30.5504 56.079 27.2269 54.7605 24.3736C53.7778 21.7237 52.7062 19.0728 52.2469 16.2679C52.2864 11.502 52.1531 6.73308 52.3407 1.96913C51.6296 0.428042 49.7926 0.281672 48.1881 0.275993V0.276003ZM48.4064 0.821632C49.6938 0.829533 51.0173 0.990324 51.8518 1.99398C51.7728 3.93472 51.9407 5.9242 51.6444 7.83348C51.6 10.71 51.8321 13.5831 51.8074 16.4651C52.1185 19.2285 53.2395 21.8083 54.1778 24.4019C54.642 25.676 55.4222 27.0448 54.9679 28.4276C54.4395 30.0671 53.7234 31.6646 52.6667 33.0355C50.1185 35.9713 47.6785 39.0241 44.8257 41.6784C42.0425 43.7589 38.3773 44.0819 35.0247 44.0345C32.4005 44.2523 29.3822 44.2024 27.3481 42.2814C26.9397 40.3569 27.7136 38.2276 29.0474 36.8206C30.8904 35.6088 32.437 33.9969 34.0652 32.5224C36.5427 30.3061 37.2864 26.9322 38.2005 23.8829C38.597 22.636 38.0049 21.3989 37.8622 20.1643C37.0953 17.0063 36.2074 13.8883 35.2647 10.7821C34.9699 9.552 34.1827 8.40385 34.48 7.08682C34.9551 5.59743 36.2933 4.56381 37.6291 3.86257C40.5175 2.51383 43.4449 0.889138 46.7131 0.84099C47.2395 0.846175 47.8197 0.818225 48.4064 0.82178V0.821632ZM50.3309 1.62297C49.7975 2.14395 51.0271 2.10445 50.9185 2.64395C50.7605 3.17176 50.2864 3.49274 49.9111 3.86C46.7807 6.5158 42.9076 8.13951 38.9506 9.08469C37.6711 9.52173 35.1916 9.03827 35.6691 7.16667C35.5126 6.58988 36.5402 5.7558 35.9437 5.43432C35.2672 6.22297 35.0968 7.46692 35.4168 8.46543C36.2938 9.76074 38.1407 9.84371 39.4923 9.36568C43.721 8.36321 47.8336 6.43976 51.0074 3.42247C51.679 2.76371 51.1704 1.6964 50.3309 1.62297ZM29.4583 18.1933C30.5106 18.1988 31.3699 18.9726 32.3333 19.3316C34.483 20.6254 36.1679 22.5884 37.4642 24.704C36.8123 26.8743 36.1758 29.139 34.8341 31.0027C34.3269 31.581 33.4597 31.4472 32.8079 31.7612C30.4958 32.3864 28.1847 33.018 25.8741 33.6477C23.7086 34.1188 21.6326 35.6941 20.9383 37.8175C22.1067 39.8733 23.7358 42.1928 23.0839 44.6832C22.5995 45.2798 22.3407 46.141 21.676 46.5528C21.8726 44.1336 20.9402 41.7983 19.7852 39.7217C17.716 35.9321 14.9575 32.4437 11.4044 29.9533C9.26123 28.7563 7.15456 27.4556 5.23901 25.9193C6.76493 25.5099 8.35654 25.4402 9.92789 25.3637C12.4479 25.0852 14.9763 24.7963 17.4523 24.2457C20.3314 22.9143 23.0469 21.2605 25.799 19.6896C26.8202 19.1193 27.7788 18.3296 28.9946 18.2417C29.1536 18.2077 29.3076 18.1923 29.4583 18.1933ZM4.52839 26.0086C6.6998 27.3247 8.79362 29.0032 11.1131 30.184C14.2973 32.3489 16.8296 35.3928 18.7793 38.6916C20.2755 41.0946 21.5432 43.8269 21.3758 46.7074C21.4094 46.9346 21.2173 47.382 20.9254 47.2743C20.7941 44.8402 19.9111 42.3928 19.0716 40.0694C17.6997 37.5074 15.6637 35.3909 13.7249 33.2521C10.8928 30.1978 6.79308 28.9573 3.45826 26.6106C2.75061 26.1217 4.24503 26.1593 4.52834 26.0086H4.52839ZM2.66977 26.5667C3.7877 27.1193 4.80251 27.9923 5.95214 28.5543C8.00745 29.4901 9.93288 30.702 11.8144 31.9519C13.9754 33.7425 15.7067 35.981 17.4736 38.1444C19.2114 40.3119 19.7294 43.1277 20.4326 45.7444C20.4104 46.4363 20.9057 47.4393 20.1754 47.9044C19.4371 48.2743 18.6865 48.7148 17.8628 48.8284C17.8692 48.5514 18.3344 48.4472 18.3013 48.1049C18.2173 45.3143 17.2223 42.5983 15.7507 40.2402C13.8544 37.6521 11.7551 35.1899 9.33782 33.0714C7.88152 31.8077 6.05634 31.0551 4.56977 29.8131C3.3957 29.2002 2.35007 27.5736 0.857475 28.2995C0.811796 27.2827 1.89757 26.8704 2.66977 26.5667ZM1.73762 28.3928C1.95308 28.4007 2.12375 28.5904 2.32538 28.6674C4.31362 29.982 6.18473 31.4891 8.28093 32.6452C10.5708 34.4995 12.5881 36.6827 14.3718 39.0235C16.5348 41.4926 17.6997 44.7262 17.9861 47.9558C17.6469 48.8131 16.5994 49.4773 15.6681 49.1519C14.9106 48.9765 14.2627 48.5212 13.6128 48.1173C10.7787 46.0294 8.73377 43.0911 6.89081 40.144C5.21822 39.7257 3.98454 38.3627 3.14627 36.9168C1.99194 35.2551 1.33081 33.302 0.936981 31.34C0.91229 30.3553 0.29313 28.8659 1.58019 28.4205C1.63565 28.3993 1.68775 28.3914 1.73752 28.3928H1.73762ZM55.2191 28.783C55.55 29.062 55.3821 30.141 55.0956 30.5928C53.5302 32.8353 52.3352 35.3533 50.3796 37.2926C47.985 39.6536 45.6887 42.2126 42.7816 43.9568C39.5129 44.8965 36.1218 45.5484 32.7011 45.3622C30.9826 44.7736 29.1742 44.3286 27.59 43.4007C27.4285 43.297 27.1228 42.9237 27.3939 42.7815C30.0912 44.9928 33.8695 44.3425 37.0863 44.3696C39.8542 44.1583 42.8324 43.7341 45.0566 41.9114C47.706 39.4057 50.0833 36.6358 52.4092 33.8294C53.7722 32.4328 54.5722 30.5889 55.2191 28.783ZM1.77713 29.3716C1.73787 29.3741 1.69683 29.383 1.65377 29.3988C1.25436 29.6719 1.37599 30.2719 1.37782 30.6842C1.80562 33.4615 2.70804 36.5815 5.44439 37.9568C5.5234 37.9751 5.60982 37.9583 5.6676 37.8975C6.21328 36.739 5.73822 35.4901 5.58908 34.2975C5.23007 32.4205 3.81985 31.0062 2.44641 29.782C2.24167 29.6319 2.05209 29.3528 1.77713 29.3716ZM1.8192 29.7627C3.21056 30.7519 4.58528 32.1607 5.13673 33.858C5.11451 35.062 6.15105 36.4378 5.35945 37.5469C2.73031 36.0279 1.92103 32.8481 1.68957 30.0412C1.6593 29.9311 1.70375 29.7998 1.8192 29.7627ZM55.2118 31.139C55.2809 33.5365 53.439 35.9588 51.197 36.9247C52.7822 35.2077 53.7352 32.9109 55.2118 31.139ZM8.27994 34.4467C8.12686 34.4452 7.97328 34.4565 7.8271 34.4733C5.99649 35.0694 6.43797 37.5691 6.62661 39.0467C8.15698 41.6788 9.81723 44.302 12.0587 46.4002C12.3792 46.6353 12.7501 47.0348 13.1743 47.0032C13.9259 46.4309 14.0878 45.3454 14.0236 44.457C13.9575 42.1884 12.7703 40.2225 11.7111 38.2901C10.959 37.0595 10.3422 35.6862 9.22167 34.7336C8.95599 34.5173 8.61772 34.4501 8.27994 34.4467ZM8.20834 34.7815C8.54217 34.7785 8.88241 34.8141 9.11254 35.0827C10.1846 36.0896 10.8009 37.4496 11.5772 38.6733C12.2987 40.1074 13.2064 41.4901 13.517 43.0837C13.8093 44.2185 13.9338 45.5904 13.1629 46.5662C12.9175 46.8452 12.6044 46.4156 12.4044 46.303C10.1915 44.5054 8.78464 41.9494 7.28538 39.5731C6.78513 38.9593 6.82118 38.1459 6.69871 37.4081C6.85081 36.4926 6.74464 35.0605 7.88093 34.7904C7.98661 34.7879 8.09723 34.7825 8.20834 34.7815ZM50.0365 38.1593C50.0908 38.1573 50.0217 38.2768 50.0069 38.3361C48.8562 40.2857 47.5476 42.1425 46.1456 43.9222C44.8715 45.0684 43.2557 45.7988 41.6192 46.2472C38.6666 47.0551 35.5713 47.3094 32.5259 47.0457C30.5673 46.6867 28.2019 45.8872 27.5432 43.78C29.2167 44.6195 31.0078 45.1998 32.8202 45.658C36.1654 45.8679 39.4691 45.2299 42.673 44.3509C45.5125 42.8447 47.6953 40.3879 49.9772 38.1825C50.0019 38.1667 50.0217 38.1598 50.0365 38.1593Z" fill="#333333"/>
<path d="M4.52836 26.0078C4.24505 26.1584 2.75063 26.1209 3.45804 26.6098C6.7931 28.9565 10.8931 30.197 13.7247 33.2513C15.664 35.39 17.7 37.5066 19.0719 40.0686C19.9114 42.392 20.7943 44.8394 20.9257 47.2735C21.2175 47.3811 21.4096 46.9337 21.3761 46.7066C21.5435 43.8261 20.2758 41.0937 18.7795 38.6908C16.8299 35.392 14.2975 32.3481 11.1133 30.1831C8.79384 29.0024 6.70001 27.3239 4.52865 26.0078H4.52836ZM1.73759 28.392C1.68781 28.3905 1.63572 28.3984 1.58026 28.4197C0.293247 28.8651 0.912358 30.3545 0.937049 31.3392C1.33088 33.3011 1.99201 35.2542 3.14633 36.916C3.9846 38.3619 5.21828 39.7249 6.89088 40.1431C8.73384 43.0903 10.7788 46.0286 13.6129 48.1165C14.2627 48.5204 14.9106 48.9757 15.6682 49.151C16.5995 49.4765 17.6469 48.8123 17.9862 47.955C17.6998 44.7253 16.5348 41.4918 14.3719 39.0226C12.5882 36.6819 10.5709 34.4987 8.281 32.6444C6.1847 31.4883 4.31359 29.9811 2.32544 28.6666C2.12372 28.5895 1.95305 28.3999 1.73759 28.392ZM55.2191 28.7821C54.5722 30.5881 53.7722 32.432 52.4092 33.8286C50.0833 36.635 47.706 39.4049 45.0566 41.9105C42.8324 43.7332 39.8541 44.1574 37.0862 44.3688C33.8694 44.3416 30.0912 44.992 27.3939 42.7807C27.1228 42.9229 27.4285 43.2962 27.5899 43.3999C29.1741 44.3278 30.9825 44.7728 32.701 45.3614C36.1218 45.5476 39.5129 44.8957 42.7815 43.956C45.6887 42.2118 47.985 39.6528 50.3796 37.2918C52.3351 35.3525 53.5302 32.8345 55.0956 30.592C55.382 30.1402 55.5499 29.0611 55.2191 28.7821ZM1.7771 29.3708C2.05206 29.352 2.24164 29.631 2.44638 29.7811C3.81981 31.0053 5.23004 32.4197 5.58905 34.2967C5.73819 35.4893 6.21325 36.7382 5.66757 37.8967C5.60979 37.9574 5.52337 37.9742 5.44436 37.956C2.70801 36.5807 1.80559 33.4607 1.37779 30.6834C1.37596 30.271 1.25433 29.671 1.65374 29.3979C1.6968 29.3821 1.73784 29.3732 1.7771 29.3708ZM1.81917 29.7619C1.70372 29.7989 1.65927 29.9303 1.68954 30.0404C1.921 32.8473 2.73028 36.0271 5.35942 37.5461C6.15102 36.437 5.11448 35.0611 5.1367 33.8572C4.58525 32.1599 3.21053 30.751 1.81917 29.7619ZM55.2118 31.1382C53.7352 32.91 52.7821 35.2068 51.197 36.9239C53.4389 35.9579 55.2809 33.5357 55.2118 31.1382ZM8.27991 34.4458C8.61769 34.4493 8.95596 34.5165 9.22164 34.7328C10.3421 35.6853 10.9589 37.0587 11.711 38.2893C12.7703 40.2216 13.9574 42.1876 14.0236 44.4562C14.0878 45.3446 13.9258 46.43 13.1742 47.0024C12.75 47.034 12.3792 46.6345 12.0587 46.3994C9.8172 44.3011 8.15695 41.6779 6.62658 39.0458C6.43794 37.5683 5.99646 35.0686 7.82707 34.4725C7.97325 34.4557 8.12683 34.4444 8.27991 34.4458ZM8.20831 34.7807C8.0972 34.7816 7.98658 34.7871 7.8809 34.7895C6.7446 35.0597 6.85078 36.4918 6.69868 37.4073C6.82115 38.1451 6.7851 38.9584 7.28535 39.5723C8.78461 41.9486 10.1915 44.5046 12.4044 46.3021C12.6044 46.4147 12.9174 46.8444 13.1629 46.5653C13.9337 45.5895 13.8093 44.2177 13.5169 43.0829C13.2063 41.4893 12.2987 40.1066 11.5772 38.6725C10.8009 37.4488 10.1846 36.0888 9.11251 35.0819C8.88238 34.8132 8.54214 34.7777 8.20831 34.7807Z" fill="#828282"/>
</svg>
